<svg width="54" height="64" viewBox="0 0 54 64" fill="none" xmlns="http://www.w3.org/2000/svg">
<g clip-path="url(#clip0_107_3666)">
<path d="M51.0227 45.7524C51.2199 47.4766 50.7321 49.16 49.6498 50.4797C48.5781 51.8183 47.0491 52.6426 45.3357 52.826C43.6224 53.0093 41.9438 52.5043 40.6218 51.4047L28.243 41.3051C26.9022 40.216 26.069 38.6715 25.8719 36.9473C25.7374 35.7334 25.9495 34.5253 26.4753 33.4403L25.124 32.3323C24.1689 33.0857 23.0454 33.5362 21.8392 33.6609C20.1259 33.8442 18.4473 33.3392 17.1253 32.2397L4.73591 22.1211C3.39518 21.032 2.56198 19.4875 2.36482 17.7633C2.16766 16.0391 2.68473 14.3642 3.75647 13.0256C4.8282 11.6871 6.35722 10.8627 8.07055 10.6794C9.78387 10.496 11.4625 11.001 12.7845 12.1006L25.1633 22.2002C26.504 23.2894 27.3372 24.8338 27.5344 26.558C27.6689 27.7719 27.4568 28.98 26.931 30.065L28.2822 31.1731C29.2374 30.4196 30.3609 29.9691 31.5671 29.8444C33.2804 29.6611 34.959 30.1661 36.281 31.2656L48.6599 41.3652C50.0006 42.4544 50.8338 43.9988 51.0309 45.7231L51.0227 45.7524ZM26.7045 36.8566C26.8715 38.3497 27.5995 39.7048 28.7601 40.6462L41.1389 50.7458C42.2995 51.6872 43.7545 52.143 45.2383 51.988C46.7221 51.833 48.0636 51.1128 48.99 49.954C49.9163 48.7953 50.357 47.3363 50.1901 45.8431C50.0231 44.35 49.2951 42.9949 48.1345 42.0535L35.7556 31.9539C34.5951 31.0125 33.1401 30.5567 31.6563 30.7117C30.4981 30.8346 29.4332 31.3021 28.5553 32.0622L28.2974 32.3045L25.8464 30.3204L26.0142 30.0042C26.5821 28.995 26.8152 27.8247 26.6935 26.6781C26.5265 25.1849 25.7985 23.8298 24.638 22.8885L12.2591 12.7888C11.0985 11.8474 9.64354 11.3917 8.15975 11.5467C6.67597 11.7016 5.33442 12.4219 4.40808 13.5806C3.48174 14.7394 3.04102 16.1983 3.208 17.6915C3.37497 19.1847 4.10299 20.5398 5.26355 21.4812L17.6424 31.5808C18.803 32.5222 20.258 32.9779 21.7417 32.823C22.9 32.7001 23.9649 32.2326 24.8428 31.4725L25.1007 31.2301L27.5516 33.2143L27.3839 33.5305C26.816 34.5397 26.5828 35.7099 26.7045 36.8566ZM49.0318 45.966C49.1558 47.1609 48.8349 48.3056 48.0891 49.2153C46.5625 51.1039 43.7764 51.3874 41.8847 49.8361L29.5058 39.7365C28.5945 38.9788 28.016 37.9372 27.892 36.7422C27.8074 35.9715 27.923 35.1639 28.2458 34.4642L28.463 33.9719L30.3044 35.4768C30.4343 35.5782 30.5806 35.6208 30.7434 35.6047C30.9062 35.5887 31.0374 35.5158 31.1371 35.3861C31.347 35.1457 31.2994 34.7508 31.0397 34.5481L29.1982 33.0432L29.6353 32.7261C30.2576 32.2566 31.0039 31.9661 31.7803 31.9066C32.9678 31.7923 34.1091 32.1249 35.0204 32.8826L47.3993 42.9822C48.3106 43.7398 48.8996 44.8004 49.0131 45.9764L49.0318 45.966ZM28.7247 36.6515C28.8372 37.605 29.2918 38.4677 30.0229 39.0776L42.4018 49.1772C43.9332 50.433 46.1829 50.1996 47.4188 48.6707C48.0086 47.9219 48.2824 47.0017 48.1887 46.0378C48.0949 45.0739 47.6216 44.2216 46.8716 43.6221L34.4928 33.5225C33.7616 32.9126 32.8251 32.6397 31.8777 32.7446C31.4374 32.7909 31.0098 32.9044 30.6162 33.1231L31.5568 33.8893C32.1476 34.3789 32.2496 35.3134 31.7782 35.9222C31.5519 36.2213 31.1852 36.4002 30.8221 36.4531C30.459 36.5061 30.0681 36.3763 29.7686 36.1461L28.828 35.3799C28.7233 35.8098 28.6771 36.2567 28.727 36.6998L28.7247 36.6515ZM25.5248 26.782C25.6199 27.5717 25.4938 28.3604 25.171 29.06L24.9538 29.5523L23.2422 28.1488C23.1124 28.0474 22.966 28.0048 22.8033 28.0208C22.6405 28.0369 22.5092 28.1098 22.4096 28.2395C22.2102 28.4989 22.2473 28.8748 22.507 29.0774L24.2186 30.481L23.7815 30.7981C23.1592 31.2676 22.4129 31.5581 21.6365 31.6176C20.449 31.7319 19.3077 31.3994 18.3964 30.6417L5.99876 20.5525C5.08742 19.7948 4.49842 18.7343 4.38496 17.5583C4.2715 16.3823 4.58192 15.2187 5.32766 14.3089C6.85434 12.4203 9.64037 12.1369 11.5321 13.6882L23.911 23.7878C24.8223 24.5454 25.4008 25.5871 25.5248 26.782ZM24.5806 28.1737C24.6853 27.7438 24.7315 27.2969 24.6816 26.8538C24.5691 25.9003 24.1145 25.0376 23.3833 24.4277L11.0045 14.3281C9.47307 13.0723 7.22338 13.3057 5.9875 14.8346C5.39768 15.5834 5.12383 16.5036 5.21762 17.4675C5.3114 18.4314 5.78471 19.2837 6.53463 19.8832L18.9135 29.9828C19.6447 30.5927 20.5811 30.8656 21.5286 30.7607C21.9689 30.7144 22.3964 30.6009 22.7901 30.3822L21.9794 29.7174C21.3593 29.2192 21.2678 28.3036 21.758 27.6845C22.003 27.3749 22.351 27.2065 22.714 27.1535C23.0771 27.1006 23.4681 27.2304 23.7676 27.4605L24.5783 28.1254L24.5806 28.1737Z" fill="white"/>
</g>
<defs>
<clipPath id="clip0_107_3666">
<rect width="30" height="56" fill="white" transform="translate(0 14.5653) rotate(-29.0459)"/>
</clipPath>
</defs>
</svg>
