<svg width="47" height="56" viewBox="0 0 47 56" fill="none" xmlns="http://www.w3.org/2000/svg">
<path d="M29.9625 29.5819C29.925 30.6339 29.925 31.6859 29.9625 32.7836C29.9625 33.4697 29.7751 33.7899 29.3628 33.7441L26.589 33.4697C25.9143 33.3782 25.577 34.293 25.8394 35.3907C26.2142 36.9459 26.6265 38.501 27.0013 40.0561C27.1513 40.7422 27.0763 41.1539 26.739 41.3368C26.1392 41.7028 25.5395 42.0687 24.9398 42.5261C24.7523 42.6633 24.5649 42.6633 24.3775 42.5261C24.2651 42.4803 24.1901 42.3431 24.0776 42.2059C23.0656 40.9709 22.0535 39.736 21.079 38.501C20.929 38.3181 20.8166 38.1808 20.6667 38.0894C20.1044 37.6777 19.5422 37.7692 19.3173 38.3181C18.9799 39.3243 18.6051 40.2848 18.2303 41.2454C18.0428 41.7485 17.743 41.84 17.2182 41.4741C16.7684 41.1081 16.3936 40.8337 16.0187 40.5593C15.6439 40.2848 15.2316 40.0104 14.8568 39.7817C14.332 39.4158 14.0321 38.9127 13.8072 38.1808C13.4324 36.6714 13.0201 35.2078 12.6827 33.6984C12.4203 32.7379 11.9331 31.9146 11.3333 31.5029C11.1459 31.3657 10.921 31.2742 10.7336 31.2285C9.87149 31.137 9.00937 30.9998 8.14726 30.9083C7.95984 30.9083 7.80991 30.8168 7.65997 30.7253C7.39759 30.5424 7.13521 30.2222 6.91031 29.6733C6.42303 28.5299 5.86078 27.4321 5.29853 26.3344C4.88621 25.5568 4.81125 24.9622 4.99866 24.4133C5.33601 23.4071 5.71084 22.4465 6.08568 21.486C6.42303 20.6627 6.08568 19.3363 5.33601 18.3757C4.21151 16.9578 3.1245 15.4484 2 13.939V9.04494C2.41232 9.04494 2.82463 8.90772 3.23695 8.90772C3.94913 8.95346 4.6988 9.09067 5.41098 9.18215C6.04819 9.27363 6.38554 8.31311 6.12316 7.2611C5.74833 5.79745 5.37349 4.33379 4.99866 2.87014C4.77376 1.95535 4.84873 1.40648 5.33601 1.17779C5.86078 0.90335 6.38554 0.583175 6.83534 0.171522C7.09772 -0.0571741 7.32262 -0.0571741 7.62249 0.171522C7.77242 0.30874 7.95984 0.491696 8.14726 0.720393C9.00937 1.7724 9.87149 2.87014 10.7336 3.96788C10.9585 4.24231 11.1459 4.42527 11.3333 4.56249C11.8956 4.97414 12.4203 4.83692 12.6452 4.19658C13.0201 3.23605 13.3949 2.22979 13.7697 1.26926C13.9197 0.811872 14.2195 0.811872 14.6693 1.08631C15.1191 1.40648 15.5315 1.72666 15.9438 2.04683C16.3186 2.32127 16.656 2.54996 16.9933 2.77866C16.9933 2.77866 17.0683 2.8244 17.1058 2.87014C17.6305 3.23605 17.9679 3.78492 18.1553 4.60823C18.5301 6.11762 18.905 7.58128 19.2798 9.09067C19.5047 9.91398 20.0669 10.783 20.6292 11.1489C20.7791 11.2404 20.929 11.3319 21.079 11.3319C22.0161 11.4234 22.9157 11.5606 23.8153 11.6521C23.9652 11.6521 24.1151 11.7435 24.2651 11.835C24.5274 12.018 24.7523 12.3382 25.0147 12.887C25.502 13.9848 26.0643 15.1283 26.6265 16.1803C27.0388 17.0036 27.1138 17.6439 26.9264 18.1928C26.5515 19.1533 26.2142 20.1596 25.8394 21.1201C25.5395 21.8977 25.9143 23.2698 26.6265 24.1846C27.5636 25.3281 28.4632 26.5173 29.4003 27.6608C29.8501 28.2097 30 28.8043 30 29.4446L29.9625 29.5819ZM15.9438 28.1182C18.6051 29.9935 20.8166 28.5299 20.8541 24.8707C20.8541 21.1658 18.6801 16.5919 15.9813 14.6709C13.2825 12.7498 11.071 14.2135 11.0335 17.9183C11.0335 21.6232 13.2075 26.1972 15.9063 28.1182" fill="#C9C3C3"/>
<g filter="url(#filter0_d_120_6)">
<path d="M39 12.3123C39 12.6649 39 13.0445 39 13.4242C39 13.6683 38.9238 13.7768 38.7714 13.7497C38.4157 13.7225 38.0346 13.6954 37.679 13.6683C37.4249 13.6412 37.2725 13.9395 37.3995 14.3463C37.552 14.8887 37.7044 15.404 37.8568 15.9463C37.933 16.1904 37.8822 16.326 37.7552 16.3803C37.5266 16.4887 37.2725 16.6515 37.0439 16.7871C36.9677 16.8413 36.8915 16.8413 36.8152 16.7871C36.7898 16.7871 36.739 16.7328 36.6882 16.6786C36.2818 16.2447 35.9007 15.8379 35.4942 15.404C35.4434 15.3497 35.3926 15.2955 35.3164 15.2684C35.0878 15.1328 34.8591 15.1599 34.7829 15.3497C34.6559 15.7023 34.5035 16.0277 34.351 16.3531C34.2748 16.5159 34.1478 16.543 33.97 16.4345C33.7921 16.326 33.6397 16.2175 33.4873 16.1362C33.3349 16.0548 33.1824 15.9463 33.03 15.865C32.8268 15.7294 32.6998 15.5667 32.6236 15.3226C32.4711 14.8073 32.3187 14.292 32.1663 13.7768C32.0647 13.4513 31.8614 13.153 31.6328 13.0174C31.5566 12.9632 31.4804 12.9361 31.4042 12.9361C31.0739 12.9089 30.7182 12.8547 30.388 12.8276C30.3118 12.8276 30.261 12.8005 30.2102 12.7733C30.1085 12.7191 30.0069 12.5835 29.9307 12.4208C29.7275 12.0411 29.5242 11.6614 29.2956 11.2818C29.1432 11.0106 29.0924 10.7936 29.1686 10.6309C29.2956 10.3055 29.448 9.9529 29.6005 9.62747C29.7275 9.32915 29.6005 8.89524 29.2956 8.54268C28.8637 8.05453 28.4319 7.53925 28 7.02398C28 6.45447 28 5.91207 28 5.34256C28.1524 5.34256 28.3048 5.28832 28.4827 5.28832C28.7621 5.28832 29.0416 5.34256 29.3464 5.3968C29.6005 5.42392 29.7275 5.09848 29.6259 4.74593C29.4734 4.23066 29.321 3.7425 29.194 3.25435C29.0924 2.92891 29.1178 2.73907 29.321 2.65772C29.5242 2.57636 29.7275 2.46788 29.9053 2.30516C30.0069 2.2238 30.1085 2.2238 30.2102 2.30516C30.2864 2.33228 30.3372 2.41364 30.4134 2.495C30.7436 2.87467 31.0993 3.22723 31.4296 3.6069C31.5058 3.68826 31.582 3.76962 31.6582 3.82386C31.8868 3.95946 32.0901 3.93234 32.1663 3.68826C32.3187 3.36283 32.4457 3.01027 32.5982 2.68484C32.6744 2.52212 32.776 2.52212 32.9538 2.6306C33.1316 2.73907 33.2841 2.84755 33.4619 2.95603C33.6143 3.03739 33.7413 3.11875 33.8684 3.20011C33.8684 3.20011 33.8938 3.20011 33.9192 3.20011C34.1224 3.33571 34.2494 3.52554 34.3256 3.79674C34.4781 4.31201 34.6305 4.82729 34.7829 5.34256C34.8591 5.61376 35.0878 5.91207 35.3164 6.04767C35.3672 6.07479 35.4434 6.10191 35.4942 6.12903C35.8499 6.15615 36.2055 6.21039 36.5866 6.23751C36.6374 6.23751 36.7136 6.26463 36.7644 6.29175C36.8661 6.34599 36.9677 6.48159 37.0439 6.6443C37.2471 7.02398 37.4503 7.40366 37.679 7.78333C37.8568 8.08165 37.8822 8.27148 37.806 8.46132C37.6536 8.78676 37.5266 9.13931 37.3741 9.46475C37.2725 9.73595 37.3741 10.197 37.679 10.5224C38.0346 10.9292 38.4157 11.3089 38.7714 11.7157C38.9492 11.9055 39 12.0954 39 12.3394V12.3123ZM33.4873 11.797C34.5289 12.4479 35.418 11.9326 35.418 10.6851C35.418 9.41051 34.5797 7.83757 33.5127 7.15958C32.4457 6.50871 31.582 6.99686 31.582 8.27148C31.582 9.54611 32.4457 11.119 33.5127 11.7699" fill="white"/>
</g>
<g filter="url(#filter1_d_120_6)">
<path d="M42.9761 42.2767C42.9761 42.6606 42.9761 43.0719 42.9761 43.4558C42.9761 43.7026 42.9046 43.8397 42.7375 43.8123C42.3796 43.7849 41.9978 43.7575 41.6399 43.7026C41.3774 43.6752 41.2343 44.0043 41.3536 44.4156C41.4967 44.9914 41.6638 45.5673 41.8069 46.1431C41.8785 46.3899 41.8308 46.5544 41.7115 46.6367C41.4729 46.7738 41.2343 46.9109 41.0195 47.0754C40.9479 47.1303 40.8764 47.1303 40.8048 47.0754C40.757 47.0754 40.7332 47.0206 40.6855 46.9657C40.2798 46.4996 39.898 46.0608 39.4924 45.5947C39.4447 45.5398 39.3731 45.485 39.3254 45.4576C39.1106 45.3205 38.872 45.3479 38.8004 45.5398C38.6573 45.8963 38.5141 46.2802 38.3709 46.6367C38.2993 46.8286 38.18 46.856 37.9892 46.7189C37.8221 46.5818 37.6551 46.4721 37.5119 46.3899C37.3688 46.3076 37.2017 46.1979 37.0586 46.1157C36.8438 45.9786 36.7245 45.7866 36.6529 45.5398C36.5098 44.9914 36.3427 44.443 36.1996 43.8946C36.1041 43.5381 35.8894 43.2365 35.6746 43.0719C35.603 43.0171 35.5076 42.9897 35.436 42.9897C35.102 42.9623 34.7679 42.9074 34.41 42.88C34.3384 42.88 34.2907 42.8526 34.2191 42.7977C34.1236 42.7155 34.0282 42.6058 33.9328 42.4138C33.7419 42.0025 33.5271 41.5912 33.3124 41.1799C33.1453 40.9057 33.1215 40.6589 33.1931 40.4669C33.3362 40.1105 33.4794 39.7266 33.6226 39.3701C33.7419 39.0685 33.6226 38.5749 33.3124 38.2184C32.8829 37.6974 32.4534 37.1216 32 36.5731C32 35.9699 32 35.3666 32 34.7634C32.167 34.7634 32.3102 34.7085 32.4772 34.7085C32.7636 34.7085 33.0499 34.7908 33.3362 34.8182C33.5987 34.8456 33.718 34.5166 33.6226 34.1053C33.4794 33.5568 33.3362 33.0358 33.1931 32.4874C33.0976 32.1584 33.1215 31.939 33.3124 31.8567C33.5271 31.7745 33.718 31.6374 33.9089 31.4728C34.0043 31.3906 34.0998 31.3906 34.2191 31.4728C34.2907 31.5277 34.3623 31.5825 34.4338 31.6648C34.7679 32.0487 35.1258 32.46 35.4599 32.8713C35.5315 32.981 35.6269 33.0358 35.6985 33.0907C35.9371 33.2278 36.128 33.2004 36.2234 32.9536C36.3666 32.5971 36.5098 32.2406 36.6529 31.8841C36.7245 31.7196 36.8438 31.7196 37.0108 31.8293C37.1779 31.9664 37.3449 32.0761 37.5119 32.1858C37.6551 32.268 37.7983 32.3777 37.9414 32.46C37.9414 32.46 37.9653 32.46 37.9892 32.46C38.2039 32.5971 38.3232 32.789 38.3948 33.0907C38.538 33.6391 38.705 34.1875 38.8482 34.7359C38.9197 35.0376 39.1584 35.3666 39.3731 35.5037C39.4447 35.5311 39.4924 35.5586 39.5401 35.586C39.898 35.6408 40.256 35.6683 40.6139 35.7231C40.6855 35.7231 40.7332 35.7505 40.7809 35.7779C40.8764 35.8602 40.9718 35.9699 41.0672 36.1618C41.2581 36.5731 41.4729 36.9845 41.6876 37.3958C41.8547 37.6974 41.8785 37.9168 41.8069 38.1361C41.6638 38.4926 41.5206 38.8765 41.3774 39.233C41.2581 39.5346 41.3774 40.0282 41.6876 40.3573C42.0456 40.796 42.4035 41.2073 42.7614 41.646C42.9284 41.838 43 42.0574 43 42.3041L42.9761 42.2767ZM37.4881 41.7557C38.538 42.4413 39.397 41.9203 39.4208 40.5766C39.4208 39.2056 38.5618 37.5055 37.5119 36.7925C36.462 36.0796 35.5792 36.628 35.5792 37.999C35.5792 39.3701 36.4382 41.0702 37.4881 41.7831" fill="white"/>
</g>
<path d="M27.9625 30.7039C27.925 31.7559 27.925 32.8079 27.9625 33.9057C27.9625 34.5918 27.7751 34.9119 27.3628 34.8662L24.589 34.5918C23.9143 34.5003 23.577 35.4151 23.8394 36.5128C24.2142 38.0679 24.6265 39.6231 25.0013 41.1782C25.1513 41.8643 25.0763 42.276 24.739 42.4589C24.1392 42.8248 23.5395 43.1907 22.9398 43.6481C22.7523 43.7853 22.5649 43.7853 22.3775 43.6481C22.2651 43.6024 22.1901 43.4652 22.0776 43.328C21.0656 42.093 20.0535 40.858 19.079 39.6231C18.929 39.4401 18.8166 39.3029 18.6667 39.2114C18.1044 38.7998 17.5422 38.8912 17.3173 39.4401C16.9799 40.4464 16.6051 41.4069 16.2303 42.3674C16.0428 42.8706 15.743 42.962 15.2182 42.5961C14.7684 42.2302 14.3936 41.9558 14.0187 41.6813C13.6439 41.4069 13.2316 41.1325 12.8568 40.9038C12.332 40.5379 12.0321 40.0347 11.8072 39.3029C11.4324 37.7935 11.0201 36.3299 10.6827 34.8205C10.4203 33.8599 9.93307 33.0366 9.33333 32.625C9.14592 32.4878 8.92102 32.3963 8.7336 32.3505C7.87149 32.2591 7.00937 32.1218 6.14726 32.0304C5.95984 32.0304 5.80991 31.9389 5.65997 31.8474C5.39759 31.6644 5.13521 31.3443 4.91031 30.7954C4.42303 29.6519 3.86078 28.5542 3.29853 27.4564C2.88621 26.6789 2.81125 26.0843 2.99866 25.5354C3.33601 24.5291 3.71084 23.5686 4.08568 22.6081C4.42303 21.7848 4.08568 20.4583 3.33601 19.4978C2.21151 18.0799 1.1245 16.5705 0 15.0611V10.167C0.412316 10.167 0.824632 10.0298 1.23695 10.0298C1.94913 10.0755 2.6988 10.2127 3.41098 10.3042C4.04819 10.3957 4.38554 9.43518 4.12316 8.38317C3.74833 6.91952 3.37349 5.45586 2.99866 3.99221C2.77376 3.07742 2.84873 2.52855 3.33601 2.29986C3.86078 2.02542 4.38554 1.70525 4.83534 1.29359C5.09772 1.0649 5.32262 1.0649 5.62249 1.29359C5.77242 1.43081 5.95984 1.61377 6.14726 1.84246C7.00937 2.89447 7.87149 3.99221 8.7336 5.08995C8.9585 5.36439 9.14592 5.54734 9.33333 5.68456C9.89558 6.09621 10.4203 5.95899 10.6452 5.31865C11.0201 4.35812 11.3949 3.35186 11.7697 2.39133C11.9197 1.93394 12.2195 1.93394 12.6693 2.20838C13.1191 2.52855 13.5315 2.84873 13.9438 3.1689C14.3186 3.44334 14.656 3.67203 14.9933 3.90073C14.9933 3.90073 15.0683 3.94647 15.1058 3.99221C15.6305 4.35812 15.9679 4.90699 16.1553 5.7303C16.5301 7.23969 16.905 8.70335 17.2798 10.2127C17.5047 11.0361 18.0669 11.9051 18.6292 12.271C18.7791 12.3625 18.929 12.454 19.079 12.454C20.0161 12.5454 20.9157 12.6827 21.8153 12.7741C21.9652 12.7741 22.1151 12.8656 22.2651 12.9571C22.5274 13.1401 22.7523 13.4602 23.0147 14.0091C23.502 15.1068 24.0643 16.2503 24.6265 17.3023C25.0388 18.1256 25.1138 18.766 24.9264 19.3149C24.5515 20.2754 24.2142 21.2816 23.8394 22.2422C23.5395 23.0197 23.9143 24.3919 24.6265 25.3067C25.5636 26.4502 26.4632 27.6394 27.4003 28.7829C27.8501 29.3317 28 29.9264 28 30.5667L27.9625 30.7039ZM13.9438 29.2403C16.6051 31.1156 18.8166 29.6519 18.8541 25.9928C18.8541 22.2879 16.6801 17.714 13.9813 15.7929C11.2825 13.8719 9.07095 15.3355 9.03347 19.0404C9.03347 22.7453 11.2075 27.3192 13.9063 29.2403" fill="white"/>
<defs>
<filter id="filter0_d_120_6" x="24" y="2.24414" width="19" height="22.584" filterUnits="userSpaceOnUse" color-interpolation-filters="sRGB">
<feFlood flood-opacity="0" result="BackgroundImageFix"/>
<feColorMatrix in="SourceAlpha" type="matrix" values="0 0 0 0 0 0 0 0 0 0 0 0 0 0 0 0 0 0 127 0" result="hardAlpha"/>
<feOffset dy="4"/>
<feGaussianBlur stdDeviation="2"/>
<feComposite in2="hardAlpha" operator="out"/>
<feColorMatrix type="matrix" values="0 0 0 0 0 0 0 0 0 0 0 0 0 0 0 0 0 0 0.25 0"/>
<feBlend mode="normal" in2="BackgroundImageFix" result="effect1_dropShadow_120_6"/>
<feBlend mode="normal" in="SourceGraphic" in2="effect1_dropShadow_120_6" result="shape"/>
</filter>
<filter id="filter1_d_120_6" x="28" y="31.4111" width="19" height="23.7051" filterUnits="userSpaceOnUse" color-interpolation-filters="sRGB">
<feFlood flood-opacity="0" result="BackgroundImageFix"/>
<feColorMatrix in="SourceAlpha" type="matrix" values="0 0 0 0 0 0 0 0 0 0 0 0 0 0 0 0 0 0 127 0" result="hardAlpha"/>
<feOffset dy="4"/>
<feGaussianBlur stdDeviation="2"/>
<feComposite in2="hardAlpha" operator="out"/>
<feColorMatrix type="matrix" values="0 0 0 0 0 0 0 0 0 0 0 0 0 0 0 0 0 0 0.25 0"/>
<feBlend mode="normal" in2="BackgroundImageFix" result="effect1_dropShadow_120_6"/>
<feBlend mode="normal" in="SourceGraphic" in2="effect1_dropShadow_120_6" result="shape"/>
</filter>
</defs>
</svg>
