<svg width="71" height="64" viewBox="0 0 71 64" fill="none" xmlns="http://www.w3.org/2000/svg">
<rect width="70.8596" height="63.8128" rx="11" fill="#04AAAB"/>
<path d="M35.9982 48.6663C37.8974 48.6667 39.7498 48.0771 41.2995 46.9791C42.8491 45.8811 44.0194 44.3288 44.6487 42.5369C45.2779 40.745 45.3351 38.8018 44.8122 36.976C44.2894 35.1502 43.2123 33.5319 41.7299 32.3447C41.5078 32.1763 41.3267 31.9599 41.2 31.7117C41.0733 31.4635 41.0043 31.1899 40.9982 30.9113V20.333C40.9982 19.0069 40.4714 17.7352 39.5337 16.7975C38.5961 15.8598 37.3243 15.333 35.9982 15.333C34.6721 15.333 33.4004 15.8598 32.4627 16.7975C31.525 17.7352 30.9982 19.0069 30.9982 20.333V30.913C30.9982 31.4763 30.7065 31.993 30.2665 32.3463C28.7848 33.5337 27.7083 35.1519 27.1859 36.9774C26.6634 38.8029 26.7207 40.7456 27.3499 42.5372C27.9791 44.3287 29.1491 45.8806 30.6983 46.9786C32.2475 48.0765 34.0994 48.6662 35.9982 48.6663Z" stroke="#FFF4F4" stroke-width="2"/>
<path d="M40.1654 39.4997C40.1654 40.6047 39.7264 41.6646 38.945 42.446C38.1636 43.2274 37.1038 43.6663 35.9987 43.6663C34.8936 43.6663 33.8338 43.2274 33.0524 42.446C32.271 41.6646 31.832 40.6047 31.832 39.4997C31.832 38.3946 32.271 37.3348 33.0524 36.5534C33.8338 35.772 34.8936 35.333 35.9987 35.333C37.1038 35.333 38.1636 35.772 38.945 36.5534C39.7264 37.3348 40.1654 38.3946 40.1654 39.4997Z" stroke="#FFF4F4" stroke-width="2"/>
<path d="M36 35.333V20.333" stroke="#FFF4F4" stroke-width="2" stroke-linecap="round"/>
</svg>
