<svg width="61" height="55" viewBox="0 0 61 55" fill="none" xmlns="http://www.w3.org/2000/svg">
<rect width="61" height="55" rx="10" fill="#04AAAB"/>
<path d="M35.25 12.4933H48V44H14V11L35.25 32.0045V12.4933ZM16.125 41.8996H42.2393L16.125 16.087V41.8996ZM43.1357 39.7991L45.2607 41.8996H45.875V14.5937H37.375V16.6942H41.625V18.7946H37.375V20.8951H41.625V22.9955H37.375V25.096H43.75V27.1964H37.375V29.2969H41.625V31.3973H37.375V33.4978H41.625V35.5982H38.8857L41.0107 37.6987H43.75V39.7991H43.1357ZM20.375 27.8036L30.3857 37.6987H20.375V27.8036ZM22.5 32.8906V35.5982H25.2393L22.5 32.8906Z" fill="white"/>
</svg>
