<svg width="61" height="55" viewBox="0 0 61 55" fill="none" xmlns="http://www.w3.org/2000/svg">
<rect width="61" height="55" rx="10" fill="#04AAAB"/>
<path d="M26.5 15H19.4167C19.0409 15 18.6806 15.1493 18.4149 15.4149C18.1493 15.6806 18 16.0409 18 16.4167V23.5C18 23.8757 18.1493 24.2361 18.4149 24.5017C18.6806 24.7674 19.0409 24.9167 19.4167 24.9167H26.5C26.8757 24.9167 27.2361 24.7674 27.5017 24.5017C27.7674 24.2361 27.9167 23.8757 27.9167 23.5V16.4167C27.9167 16.0409 27.7674 15.6806 27.5017 15.4149C27.2361 15.1493 26.8757 15 26.5 15ZM26.5 30.5833H19.4167C19.0409 30.5833 18.6806 30.7326 18.4149 30.9983C18.1493 31.2639 18 31.6243 18 32V39.0833C18 39.4591 18.1493 39.8194 18.4149 40.0851C18.6806 40.3507 19.0409 40.5 19.4167 40.5H26.5C26.8757 40.5 27.2361 40.3507 27.5017 40.0851C27.7674 39.8194 27.9167 39.4591 27.9167 39.0833V32C27.9167 31.6243 27.7674 31.2639 27.5017 30.9983C27.2361 30.7326 26.8757 30.5833 26.5 30.5833ZM38.5417 24.9167C39.1928 24.9167 39.8376 24.7884 40.4391 24.5392C41.0407 24.2901 41.5873 23.9248 42.0477 23.4644C42.5082 23.004 42.8734 22.4574 43.1226 21.8558C43.3717 21.2542 43.5 20.6095 43.5 19.9583C43.5 19.3072 43.3717 18.6624 43.1226 18.0609C42.8734 17.4593 42.5082 16.9127 42.0477 16.4523C41.5873 15.9918 41.0407 15.6266 40.4391 15.3774C39.8376 15.1283 39.1928 15 38.5417 15C37.2266 15 35.9655 15.5224 35.0356 16.4523C34.1057 17.3821 33.5833 18.6433 33.5833 19.9583C33.5833 21.2734 34.1057 22.5345 35.0356 23.4644C35.9655 24.3943 37.2266 24.9167 38.5417 24.9167ZM42.0833 30.5833H35C34.6243 30.5833 34.2639 30.7326 33.9983 30.9983C33.7326 31.2639 33.5833 31.6243 33.5833 32V39.0833C33.5833 39.4591 33.7326 39.8194 33.9983 40.0851C34.2639 40.3507 34.6243 40.5 35 40.5H42.0833C42.4591 40.5 42.8194 40.3507 43.0851 40.0851C43.3507 39.8194 43.5 39.4591 43.5 39.0833V32C43.5 31.6243 43.3507 31.2639 43.0851 30.9983C42.8194 30.7326 42.4591 30.5833 42.0833 30.5833Z" stroke="white" stroke-width="2" stroke-linejoin="round"/>
</svg>
