<svg width="61" height="55" viewBox="0 0 61 55" fill="none" xmlns="http://www.w3.org/2000/svg">
<rect width="61" height="55" rx="10" fill="#04AAAB"/>
<path d="M21.0846 42.5837H40.918M24.9904 18.1561L27.9966 21.1622M27.9966 21.1622C28.7936 20.3652 29.8741 19.917 31.0013 19.917M27.9966 21.1622C27.1995 21.9593 26.7513 23.0398 26.7513 24.167M26.7513 24.167H22.5013M26.7513 24.167C26.7513 25.2942 27.1995 26.3747 27.9966 27.1717M27.9966 27.1717L24.9904 30.1779M27.9966 27.1717C28.7936 27.9688 29.8741 28.417 31.0013 28.417M31.0013 28.417V32.667M31.0013 28.417C32.1285 28.417 33.209 27.9688 34.0061 27.1717M34.0061 27.1717L37.0122 30.1779M34.0061 27.1717C34.8031 26.3747 35.2513 25.2942 35.2513 24.167M39.5013 24.167H35.2513M35.2513 24.167C35.2513 23.0398 34.8031 21.9593 34.0061 21.1622M37.0122 18.1561L34.0061 21.1622M34.0061 21.1622C33.209 20.3652 32.1285 19.917 31.0013 19.917M31.0013 19.917V15.667M15.418 36.917H46.5846V11.417H15.418V36.917ZM25.3346 42.5837H36.668V36.917H25.3346V42.5837Z" stroke="white" stroke-width="2"/>
</svg>
