<svg width="71" height="64" viewBox="0 0 71 64" fill="none" xmlns="http://www.w3.org/2000/svg">
<rect width="70.8596" height="63.8128" rx="11" fill="#04AAAB"/>
<path d="M18.5 19.308C18.5 17.222 20.222 15.5 22.308 15.5H47.692C49.778 15.5 51.5 17.222 51.5 19.308V30.848C51.4937 31.8558 51.0904 32.8205 50.3776 33.533C49.6647 34.2455 48.6998 34.6482 47.692 34.654H22.308C21.2998 34.6482 20.3346 34.2452 19.6217 33.5323C18.9088 32.8194 18.5058 31.8542 18.5 30.846V19.308ZM42.73 31.654V28.538C42.724 28.3256 42.6369 28.1236 42.4866 27.9734C42.3364 27.8231 42.1344 27.736 41.922 27.73H28.078C27.866 27.7365 27.6644 27.8238 27.5146 27.974C27.3648 28.1242 27.278 28.326 27.272 28.538V31.654H42.73ZM28.076 37.42C28.4738 37.42 28.8554 37.578 29.1367 37.8593C29.418 38.1406 29.576 38.5222 29.576 38.92C29.576 40.17 29.548 41.9 28.966 43.33C28.6543 44.1455 28.114 44.8537 27.41 45.37C26.634 45.924 25.69 46.19 24.616 46.19C24.2182 46.19 23.8366 46.032 23.5553 45.7507C23.274 45.4694 23.116 45.0878 23.116 44.69C23.116 44.2922 23.274 43.9106 23.5553 43.6293C23.8366 43.348 24.2182 43.19 24.616 43.19C25.182 43.19 25.49 43.056 25.67 42.928C25.858 42.794 26.036 42.574 26.186 42.202C26.516 41.39 26.576 40.234 26.576 38.922C26.576 38.5242 26.734 38.1426 27.0153 37.8613C27.2966 37.58 27.6782 37.422 28.076 37.422M35 37.422C35.3978 37.422 35.7794 37.58 36.0607 37.8613C36.342 38.1426 36.5 38.5242 36.5 38.922V47C36.5 47.3978 36.342 47.7794 36.0607 48.0607C35.7794 48.342 35.3978 48.5 35 48.5C34.6022 48.5 34.2206 48.342 33.9393 48.0607C33.658 47.7794 33.5 47.3978 33.5 47V38.922C33.5 38.5242 33.658 38.1426 33.9393 37.8613C34.2206 37.58 34.6022 37.422 35 37.422ZM41.922 37.422C42.3198 37.422 42.7014 37.58 42.9827 37.8613C43.264 38.1426 43.422 38.5242 43.422 38.922C43.422 40.236 43.482 41.392 43.814 42.204C43.964 42.576 44.142 42.796 44.33 42.93C44.51 43.058 44.818 43.192 45.384 43.192C45.7818 43.192 46.1634 43.35 46.4447 43.6313C46.726 43.9126 46.884 44.2942 46.884 44.692C46.884 45.0898 46.726 45.4714 46.4447 45.7527C46.1634 46.034 45.7818 46.192 45.384 46.192C44.31 46.192 43.364 45.926 42.59 45.372C41.886 44.8558 41.3457 44.1475 41.034 43.332C40.454 41.902 40.422 40.172 40.422 38.922C40.422 38.5242 40.58 38.1426 40.8613 37.8613C41.1426 37.58 41.5242 37.422 41.922 37.422Z" fill="white"/>
</svg>
