<svg width="71" height="64" viewBox="0 0 71 64" fill="none" xmlns="http://www.w3.org/2000/svg">
<rect width="70.8596" height="63.8128" rx="11" fill="#04AAAB"/>
<path d="M45.968 29.5104L37.1293 15.5762C37.0011 15.398 36.8317 15.2528 36.6352 15.1525C36.4388 15.0523 36.221 15 36 15C35.779 15 35.5612 15.0523 35.3648 15.1525C35.1683 15.2528 34.9989 15.398 34.8707 15.5762L25.992 29.5777C24.7595 31.5475 24.0725 33.8038 24 36.1198C24 39.2706 25.2643 42.2924 27.5147 44.5204C29.7652 46.7483 32.8174 48 36 48C39.1826 48 42.2348 46.7483 44.4853 44.5204C46.7357 42.2924 48 39.2706 48 36.1198C47.9235 33.7777 47.2225 31.4974 45.968 29.5104ZM36 45.3599C33.5257 45.3565 31.1538 44.3818 29.4042 42.6497C27.6547 40.9176 26.6702 38.5693 26.6667 36.1198C26.7389 34.2741 27.2989 32.4794 28.2907 30.9149L29.5373 28.9481L42.9693 42.246C42.0968 43.2243 41.0243 44.008 39.8228 44.545C38.6213 45.0821 37.3183 45.359 36 45.3599Z" fill="white"/>
</svg>
