<svg width="71" height="64" viewBox="0 0 71 64" fill="none" xmlns="http://www.w3.org/2000/svg">
<rect width="70.8596" height="63.8128" rx="11" fill="#04AAAB"/>
<path d="M27 13H45" stroke="white" stroke-width="2" stroke-linecap="round"/>
<path d="M26.082 32.5L31.5135 21.2792V13H40.521V21.2792L45.933 32.5" stroke="white" stroke-width="2" stroke-linecap="round" stroke-linejoin="round"/>
<path d="M23.8462 42.7544C23.2602 42.4708 22.8109 41.966 22.5971 41.351C22.3833 40.7361 22.4225 40.0614 22.7062 39.4754L26.0834 32.4997C26.0834 32.4997 31.5007 36.2497 36.0007 32.4997C40.5007 28.7497 45.9352 32.4997 45.9352 32.4997L49.3027 39.4784C49.4832 39.8527 49.5658 40.2667 49.5426 40.6816C49.5195 41.0965 49.3914 41.4987 49.1704 41.8506C48.9494 42.2025 48.6427 42.4925 48.2789 42.6935C47.9152 42.8945 47.5065 42.9998 47.0909 42.9997H24.9157C24.5452 42.9997 24.1799 42.9157 23.8462 42.7544Z" stroke="white" stroke-width="2" stroke-linejoin="round"/>
</svg>
