<svg width="71" height="64" viewBox="0 0 71 64" fill="none" xmlns="http://www.w3.org/2000/svg">
<rect width="70.8596" height="63.8128" rx="11" fill="#04AAAB"/>
<path d="M31.8555 26.6289V40.9275C31.8555 41.8343 31.8555 42.5703 33.4982 42.5703H36.7838C38.4265 42.5703 38.4265 41.8343 38.4265 40.9275V29.8192C35.9021 29.6603 33.5416 28.5143 31.8555 26.6289Z" fill="white"/>
<path fill-rule="evenodd" clip-rule="evenodd" d="M32.5102 23.1871C32.936 24.113 33.5538 24.9378 34.3225 25.6068C35.0912 26.2759 35.9934 26.774 36.9692 27.068C37.945 27.3621 38.9721 27.4454 39.9825 27.3124C40.9929 27.1794 41.9635 26.8333 42.83 26.2968L47.1226 30.5894L49.4454 28.2665L45.1529 23.974C45.8071 22.9176 46.1762 21.7096 46.2243 20.468C46.2723 19.2264 45.9977 17.9936 45.4271 16.8898C44.8566 15.786 44.0096 14.849 42.9688 14.1702C41.9281 13.4914 40.7292 13.094 39.489 13.0168C38.2489 12.9396 37.0099 13.1853 35.893 13.7298C34.7762 14.2743 33.8195 15.099 33.1165 16.1236C32.4135 17.1481 31.9881 18.3374 31.8818 19.5754C31.7755 20.8133 31.992 22.0577 32.5102 23.1871ZM39.0435 24.0889C38.8102 24.0889 38.5818 24.0692 38.3584 24.0298C37.5306 23.8824 36.7727 23.4709 36.1982 22.8569C35.5842 22.2025 35.2146 21.3565 35.1516 20.4614C35.0886 19.5663 35.336 18.6768 35.8523 17.9428C36.3685 17.2089 37.1219 16.6753 37.9856 16.432C38.8493 16.1887 39.7705 16.2505 40.5939 16.6071C41.4173 16.9636 42.0927 17.5931 42.5062 18.3895C42.9197 19.1859 43.046 20.1004 42.8639 20.9791C42.6819 21.8577 42.2025 22.6467 41.5066 23.2132C40.8107 23.7797 39.9408 24.089 39.0435 24.0889Z" fill="white"/>
<path d="M22 14.6428C22 13.736 22 13 23.6428 13H26.9283C28.5711 13 28.5711 13.736 28.5711 14.6428V40.927C28.5711 41.8338 28.5711 42.5697 26.9283 42.5697H23.6428C22 42.5697 22 41.8338 22 40.927V14.6428ZM43.3559 32.7132C41.7132 32.7132 41.7132 33.4491 41.7132 34.3559V40.927C41.7132 41.8338 41.7132 42.5697 43.3559 42.5697H46.6415C47.5483 42.5697 48.2842 42.5697 48.2842 40.927V34.3559C48.2842 33.4491 48.2842 32.7132 46.6415 32.7132H43.3559Z" fill="white"/>
</svg>
