<svg width="71" height="64" viewBox="0 0 71 64" fill="none" xmlns="http://www.w3.org/2000/svg">
<rect width="70.8596" height="63.8128" rx="11" fill="#04AAAB"/>
<path d="M36.5965 44.8938C34.9135 45.9548 32.2077 45.3871 31.6219 43.1873C31.5031 42.7416 31.27 42.3277 30.9418 41.9793C30.6136 41.6308 30.1995 41.3577 29.7332 41.1822C29.2668 41.0067 28.7615 40.9337 28.2582 40.9691C27.755 41.0046 27.268 41.1475 26.8371 41.3862C23.9676 42.9744 20.6816 39.9906 22.4297 37.3819C22.6921 36.9905 22.8491 36.5484 22.8881 36.0914C22.927 35.6345 22.8467 35.1757 22.6537 34.7523C22.4607 34.3288 22.1605 33.9528 21.7775 33.6546C21.3944 33.3564 20.9393 33.1446 20.4492 33.0363C17.1836 32.3165 17.1836 28.096 20.4492 27.3762C20.9397 27.2682 21.3953 27.0565 21.7788 26.7583C22.1623 26.4601 22.4629 26.0839 22.6561 25.6602C22.8493 25.2365 22.9297 24.7773 22.8906 24.3201C22.8516 23.8629 22.6943 23.4205 22.4315 23.0289C20.6835 20.4219 23.9676 17.4364 26.8389 19.0246C28.6986 20.0519 31.1087 19.1429 31.6219 17.2252C32.4141 14.2583 37.0595 14.2583 37.8518 17.2252C37.9706 17.6709 38.2036 18.0848 38.5318 18.4332C38.8601 18.7817 39.2742 19.0548 39.7405 19.2303C40.2068 19.4058 40.7122 19.4788 41.2155 19.4434C41.7187 19.4079 42.2057 19.265 42.6366 19.0263C45.5061 17.4381 48.7921 20.4219 47.044 23.0306C46.7816 23.422 46.6246 23.8641 46.5856 24.321C46.5467 24.778 46.627 25.2368 46.82 25.6602C47.0129 26.0836 47.3132 26.4597 47.6962 26.7579C48.0793 27.0561 48.5344 27.2679 49.0245 27.3762C51.7991 27.9878 52.2157 31.1254 50.2779 32.4956" stroke="white" stroke-width="2" stroke-linecap="round" stroke-linejoin="round"/>
<path d="M29.1562 30.2064C29.1562 31.5508 29.744 32.84 30.7903 33.7906C31.8365 34.7412 33.2556 35.2752 34.7352 35.2752C36.2148 35.2752 37.6339 34.7412 38.6801 33.7906C39.7264 32.84 40.3141 31.5508 40.3141 30.2064C40.3141 28.8621 39.7264 27.5729 38.6801 26.6223C37.6339 25.6717 36.2148 25.1377 34.7352 25.1377C33.2556 25.1377 31.8365 25.6717 30.7903 26.6223C29.744 27.5729 29.1562 28.8621 29.1562 30.2064ZM44.0334 47.1023L53.3317 42.0335L44.0334 36.9648V47.1023Z" stroke="white" stroke-width="2" stroke-linecap="round" stroke-linejoin="round"/>
</svg>
