<svg width="61" height="55" viewBox="0 0 61 55" fill="none" xmlns="http://www.w3.org/2000/svg">
<rect width="61" height="55" rx="10" fill="#04AAAB"/>
<path d="M43.6667 25.6422C43.2589 22.7094 41.8983 19.992 39.7944 17.9086C37.6905 15.8252 34.9599 14.4912 32.0233 14.1122C29.4009 13.772 26.7363 14.2095 24.3603 15.3704C21.9844 16.5313 20.0017 18.3644 18.6583 20.6422M17 28.9755C17.3856 31.7507 18.6251 34.3371 20.5466 36.3762C22.4682 38.4154 24.9766 39.8061 27.724 40.3555C30.4714 40.905 33.3217 40.5861 35.8798 39.4429C38.4378 38.2997 40.5767 36.3889 42 33.9755" stroke="white" stroke-width="3" stroke-linecap="round" stroke-linejoin="round"/>
<path d="M40.3333 33.9756C40.3333 34.4176 40.5089 34.8415 40.8215 35.1541C41.134 35.4667 41.558 35.6423 42 35.6423C42.442 35.6423 42.866 35.4667 43.1785 35.1541C43.4911 34.8415 43.6667 34.4176 43.6667 33.9756C43.6667 33.5336 43.4911 33.1096 43.1785 32.7971C42.866 32.4845 42.442 32.3089 42 32.3089C41.558 32.3089 41.134 32.4845 40.8215 32.7971C40.5089 33.1096 40.3333 33.5336 40.3333 33.9756ZM17 20.6423C17 21.0843 17.1756 21.5082 17.4882 21.8208C17.8007 22.1333 18.2246 22.3089 18.6667 22.3089C19.1087 22.3089 19.5326 22.1333 19.8452 21.8208C20.1577 21.5082 20.3333 21.0843 20.3333 20.6423C20.3333 20.2002 20.1577 19.7763 19.8452 19.4637C19.5326 19.1512 19.1087 18.9756 18.6667 18.9756C18.2246 18.9756 17.8007 19.1512 17.4882 19.4637C17.1756 19.7763 17 20.2002 17 20.6423ZM25.3333 27.3089C25.3333 28.635 25.8601 29.9068 26.7978 30.8445C27.7355 31.7821 29.0073 32.3089 30.3333 32.3089C31.6594 32.3089 32.9312 31.7821 33.8689 30.8445C34.8066 29.9068 35.3333 28.635 35.3333 27.3089C35.3333 25.9828 34.8066 24.7111 33.8689 23.7734C32.9312 22.8357 31.6594 22.3089 30.3333 22.3089C29.0073 22.3089 27.7355 22.8357 26.7978 23.7734C25.8601 24.7111 25.3333 25.9828 25.3333 27.3089Z" stroke="white" stroke-width="3" stroke-linecap="round" stroke-linejoin="round"/>
</svg>
