<svg width="49" height="43" viewBox="0 0 49 43" fill="none" xmlns="http://www.w3.org/2000/svg">
<circle cx="18" cy="18" r="16" fill="#04AAAB" fill-opacity="0.32"/>
<path d="M39.5834 16.6441C40.2884 15.9427 40.2884 14.7998 39.5834 14.0984L36.9894 11.5045L36.9931 11.5082C36.3066 10.8216 35.1265 9.64157 33.4566 7.97536C32.6699 7.20719 31.397 7.21462 30.6177 7.99391L16.0041 22.5965C15.8171 22.7822 15.6687 23.003 15.5675 23.2463C15.4662 23.4896 15.4141 23.7505 15.4141 24.014C15.4141 24.2776 15.4662 24.5385 15.5675 24.7818C15.6687 25.0251 15.8171 25.2459 16.0041 25.4316L30.614 40.0304C30.9907 40.4065 31.5012 40.6177 32.0335 40.6177C32.5657 40.6177 33.0762 40.4065 33.4529 40.0304L39.5797 33.9074C40.2847 33.206 40.2847 32.0631 39.5797 31.3617C39.241 31.0247 38.7827 30.8355 38.305 30.8355C37.8272 30.8355 37.3689 31.0247 37.0302 31.3617L32.3916 36.0078C32.1986 36.2007 31.898 36.2007 31.705 36.0078L20.0341 24.348C19.8412 24.155 19.8412 23.8545 20.0341 23.6615L31.7013 12.0017C31.7162 11.9869 31.7347 11.9757 31.7496 11.9609C31.9425 11.8088 32.2097 11.8236 32.3879 12.0017L37.034 16.6441C37.739 17.3492 38.882 17.3492 39.5834 16.6441ZM28.1648 24.0882C28.1648 25.1335 28.5804 26.1359 29.3202 26.875C30.06 27.6141 31.0633 28.0293 32.1095 28.0293C33.1557 28.0293 34.1591 27.6141 34.8989 26.875C35.6387 26.1359 36.0543 25.1335 36.0543 24.0882C36.0543 23.043 35.6387 22.0406 34.8989 21.3015C34.1591 20.5624 33.1557 20.1472 32.1095 20.1472C31.0633 20.1472 30.06 20.5624 29.3202 21.3015C28.5804 22.0406 28.1648 23.043 28.1648 24.0882ZM48.0629 22.6558L43.5021 18.1174C42.797 17.416 41.6541 17.416 40.9527 18.1211C40.7851 18.2879 40.6521 18.4863 40.5613 18.7047C40.4705 18.9232 40.4238 19.1574 40.4238 19.3939C40.4238 19.6305 40.4705 19.8647 40.5613 20.0831C40.6521 20.3015 40.7851 20.4999 40.9527 20.6668L44.0328 23.7431C44.2258 23.9361 44.2258 24.2367 44.0328 24.4297L40.9972 27.4615C40.8296 27.6284 40.6966 27.8267 40.6058 28.0452C40.5151 28.2636 40.4683 28.4978 40.4683 28.7343C40.4683 28.9709 40.5151 29.2051 40.6058 29.4235C40.6966 29.642 40.8296 29.8403 40.9972 30.0072C41.3359 30.3442 41.7942 30.5333 42.2719 30.5333C42.7497 30.5333 43.208 30.3442 43.5466 30.0072L48.0666 25.491C48.2529 25.3048 48.4006 25.0837 48.5013 24.8403C48.602 24.5969 48.6537 24.336 48.6533 24.0726C48.653 23.8092 48.6006 23.5485 48.4993 23.3054C48.398 23.0622 48.2497 22.8415 48.0629 22.6558Z" fill="#3A3A3A"/>
</svg>
