<svg width="49" height="43" viewBox="0 0 49 43" fill="none" xmlns="http://www.w3.org/2000/svg">
<circle cx="18.1367" cy="18.2383" r="16" fill="#04AAAB" fill-opacity="0.32"/>
<path d="M31.6369 19.4097C30.2509 19.4097 28.896 19.8102 27.7436 20.5605C26.5912 21.3107 25.6929 22.3771 25.1625 23.6248C24.6321 24.8725 24.4934 26.2454 24.7638 27.5699C25.0342 28.8945 25.7016 30.1111 26.6816 31.066C27.6617 32.021 28.9104 32.6713 30.2698 32.9348C31.6291 33.1982 33.0382 33.063 34.3187 32.5462C35.5992 32.0294 36.6937 31.1542 37.4637 30.0313C38.2337 28.9085 38.6447 27.5883 38.6447 26.2378C38.6423 24.4276 37.9032 22.6922 36.5895 21.4122C35.2758 20.1322 33.4948 19.4121 31.6369 19.4097ZM31.6369 31.2847C30.6125 31.2847 29.611 30.9887 28.7592 30.4342C27.9074 29.8796 27.2435 29.0914 26.8515 28.1692C26.4595 27.247 26.3569 26.2322 26.5568 25.2532C26.7566 24.2742 27.2499 23.375 27.9743 22.6692C28.6987 21.9633 29.6216 21.4827 30.6264 21.2879C31.6312 21.0932 32.6726 21.1931 33.6191 21.5751C34.5656 21.9571 35.3745 22.604 35.9437 23.4339C36.5128 24.2639 36.8166 25.2397 36.8166 26.2378C36.8166 27.5764 36.2709 28.86 35.2995 29.8065C34.3281 30.753 33.0107 31.2847 31.6369 31.2847ZM44.7385 26.6594C44.7476 26.3789 44.7476 26.0968 44.7385 25.8163L47.0739 22.9722C47.1632 22.8633 47.225 22.7356 47.2544 22.5992C47.2837 22.4628 47.2798 22.3216 47.243 22.187C46.8777 20.8452 46.3305 19.5568 45.616 18.3558C45.545 18.2339 45.4455 18.1301 45.3256 18.0527C45.2057 17.9753 45.0687 17.9266 44.9259 17.9105L41.2011 17.5082C41.005 17.3034 40.8019 17.1055 40.5917 16.9145L40.1773 13.2837C40.1608 13.1445 40.1108 13.011 40.0314 12.8942C39.952 12.7773 39.8454 12.6804 39.7203 12.6113C38.4891 11.9172 37.169 11.3851 35.7944 11.0289C35.6558 10.9937 35.5107 10.9906 35.3707 11.02C35.2308 11.0494 35.0998 11.1104 34.9885 11.1981L32.0635 13.4796C31.7751 13.4708 31.4865 13.4708 31.1982 13.4796L28.2854 11.1967C28.1736 11.1097 28.0425 11.0495 27.9025 11.0209C27.7626 10.9922 27.6176 10.996 27.4795 11.0319C26.1024 11.3879 24.7801 11.921 23.5475 12.6172C23.4224 12.6864 23.3158 12.7833 23.2364 12.9001C23.1569 13.017 23.1069 13.1504 23.0904 13.2896L22.6837 16.9189C22.4734 17.1109 22.2703 17.3088 22.0743 17.5127L18.3464 17.9253C18.2036 17.9414 18.0666 17.9901 17.9467 18.0675C17.8268 18.1449 17.7273 18.2488 17.6563 18.3706C16.944 19.5702 16.3979 20.8565 16.0323 22.1959C15.997 22.3292 15.9939 22.4687 16.0232 22.6034C16.0526 22.7381 16.1136 22.8644 16.2014 22.9722L18.543 25.8222C18.5339 26.1032 18.5339 26.3844 18.543 26.6653L16.1999 29.5109C16.1107 29.6198 16.0489 29.7475 16.0195 29.8839C15.9901 30.0203 15.994 30.1615 16.0308 30.2961C16.3968 31.6353 16.9439 32.9212 17.6579 34.1199C17.7288 34.2418 17.8283 34.3456 17.9482 34.423C18.0681 34.5004 18.2051 34.5491 18.348 34.5652L22.0728 34.9674C22.2698 35.1723 22.4729 35.3702 22.6821 35.5612L23.1057 39.1875C23.1222 39.3267 23.1722 39.4602 23.2516 39.577C23.331 39.6939 23.4376 39.7908 23.5627 39.8599C24.7939 40.554 26.114 41.0861 27.4886 41.4423C27.6268 41.4782 27.7717 41.482 27.9117 41.4533C28.0516 41.4247 28.1828 41.3645 28.2945 41.2775L31.2043 39.0035C31.4922 39.0124 31.7816 39.0124 32.0696 39.0035L34.9961 41.2864C35.1583 41.4126 35.3598 41.4811 35.5674 41.4809C35.6466 41.4806 35.7254 41.4706 35.802 41.4512C37.1765 41.0946 38.4962 40.5615 39.7264 39.8659C39.8515 39.7967 39.9581 39.6998 40.0375 39.583C40.1169 39.4661 40.1669 39.3327 40.1834 39.1935L40.5963 35.5642C40.8065 35.3732 41.0096 35.1753 41.2056 34.9704L44.932 34.5667C45.0748 34.5506 45.2118 34.5019 45.3317 34.4245C45.4516 34.3471 45.5511 34.2432 45.6221 34.1214C46.3347 32.9219 46.8808 31.6356 47.2461 30.2961C47.2829 30.1615 47.2868 30.0203 47.2574 29.8839C47.228 29.7475 47.1662 29.6198 47.077 29.5109L44.7385 26.6594ZM44.2662 32.8389L40.6648 33.2292C40.4398 33.2545 40.2324 33.3603 40.0829 33.5261C39.7818 33.8566 39.4608 34.1694 39.1216 34.4628C38.9514 34.6085 38.8428 34.8105 38.8169 35.0298L38.4162 38.5374C37.573 38.9755 36.6871 39.3305 35.7715 39.5972L32.9425 37.3914C32.7803 37.2653 32.5788 37.1967 32.3712 37.197H32.3164C31.8638 37.2222 31.4101 37.2222 30.9575 37.197C30.7314 37.1835 30.5083 37.2523 30.3313 37.3899L27.5038 39.5972C26.5891 39.3292 25.7041 38.9726 24.8622 38.5329L24.4615 35.0268C24.4356 34.8076 24.327 34.6055 24.1568 34.4598C23.8176 34.1664 23.4966 33.8537 23.1955 33.5231C23.046 33.3573 22.8386 33.2516 22.6136 33.2263L19.0137 32.8359C18.5645 32.0167 18.2002 31.156 17.926 30.2664L20.1898 27.5099C20.3311 27.3375 20.4017 27.1201 20.3879 26.8999C20.3619 26.4589 20.3619 26.0168 20.3879 25.5758C20.4017 25.3556 20.3311 25.1382 20.1898 24.9657L17.926 22.2107C18.2011 21.3194 18.567 20.4571 19.0183 19.6368L22.6166 19.2464C22.8417 19.2212 23.0491 19.1154 23.1986 18.9496C23.4997 18.619 23.8207 18.3063 24.1599 18.0129C24.33 17.8672 24.4386 17.6651 24.4646 17.4459L24.8652 13.9383C25.706 13.5007 26.5894 13.1456 27.5023 12.8785L30.3313 15.0842C30.5083 15.2219 30.7314 15.2907 30.9575 15.2772C31.4101 15.252 31.8638 15.252 32.3164 15.2772C32.5424 15.2907 32.7655 15.2219 32.9425 15.0842L35.77 12.8785C36.6848 13.1465 37.5697 13.503 38.4116 13.9428L38.8123 17.4518C38.8383 17.6711 38.9468 17.8732 39.117 18.0189C39.4562 18.3122 39.7772 18.625 40.0783 18.9555C40.2278 19.1213 40.4352 19.2271 40.6602 19.2524L44.2601 19.6428C44.7091 20.461 45.0735 21.3207 45.3479 22.2092L43.084 24.9657C42.9427 25.1382 42.8722 25.3556 42.886 25.5758C42.9119 26.0168 42.9119 26.4589 42.886 26.8999C42.8722 27.1201 42.9427 27.3375 43.084 27.5099L45.3479 30.2649C45.0737 31.1562 44.7088 32.0184 44.2586 32.8389H44.2662Z" fill="#3A3A3A"/>
</svg>
