<svg width="49" height="43" viewBox="0 0 49 43" fill="none" xmlns="http://www.w3.org/2000/svg">
<circle cx="21" cy="21" r="16" fill="#04AAAB" fill-opacity="0.32"/>
<path fill-rule="evenodd" clip-rule="evenodd" d="M44 23.4853V25C44 30.0193 39.9705 34.0883 35 34.0883H23.88L26.6214 36.8579L24.5 39L18.136 32.5736L24.5 26.1472L26.6214 28.2893L23.88 31.0588H35C38.2806 31.0588 40.9462 28.4002 40.9992 25.1001L41 25V23.4853H44ZM36.5 11L42.864 17.4264L36.5 23.8528L34.3786 21.7107L37.1199 18.9411H26C22.7194 18.9411 20.0538 21.5998 20.0008 24.8998L20 25L20 26.5147H17V25C17 20.0309 20.9492 15.9932 25.8511 15.9129L26 15.9117H37.12L34.3786 13.1421L36.5 11Z" fill="#3A3A3A"/>
</svg>
