<svg width="49" height="43" viewBox="0 0 49 43" fill="none" xmlns="http://www.w3.org/2000/svg">
<circle cx="18" cy="18" r="16" fill="#04AAAB" fill-opacity="0.32"/>
<path d="M31.25 24.25H36C38.5196 24.25 40.9359 23.2491 42.7175 21.4675C44.4991 19.6859 45.5 17.2696 45.5 14.75V13.1667H40.75C38.2304 13.1667 35.8141 14.1676 34.0325 15.9492C32.2509 17.7307 31.25 20.1471 31.25 22.6667H26.5C23.9804 22.6667 21.5641 21.6658 19.7825 19.8842C18.0009 18.1026 17 15.6862 17 13.1667V10H21.75C24.2696 10 26.6859 11.0009 28.4675 12.7825C30.2491 14.5641 31.25 16.9804 31.25 19.5V29M23.3333 29H39.1667V35.3333C39.1667 36.1732 38.833 36.9786 38.2392 37.5725C37.6453 38.1664 36.8399 38.5 36 38.5H26.5C25.6601 38.5 24.8547 38.1664 24.2608 37.5725C23.667 36.9786 23.3333 36.1732 23.3333 35.3333V29Z" stroke="#3A3A3A" stroke-width="2" stroke-linecap="round" stroke-linejoin="round"/>
</svg>
