<svg width="42" height="38" viewBox="0 0 42 38" fill="none" xmlns="http://www.w3.org/2000/svg">
<g clip-path="url(#clip0_945_507)">
<path d="M17.8536 25.0981L20.5856 20.0348C13.0012 7.14351 12.0785 6.33848 14.3726 5.73016C16.4207 5.19105 25.7963 5.2202 29.6572 5.45332C30.0118 5.47882 31.0684 5.6136 30.4388 6.63354H35.5192C35.5192 6.63354 37.0969 5.00892 37.4768 4.35325C38.0594 3.34424 38.566 1.28979 35.6784 0.0330786C9.02087 -0.0434168 9.02087 0.0367212 9.02087 0.0367212C9.02087 0.0367212 3.79213 0.0695053 5.18525 3.89063C6.83891 8.41479 17.8536 25.1017 17.8536 25.1017V25.0981Z" fill="white"/>
<path d="M19.074 13.7701H32.524C36.5586 13.7701 33.8809 15.9775 27.4364 28.4463C26.2676 30.417 25.0518 28.7996 25.0518 28.7996L22.3524 33.9685C24.3064 39.1338 27.4002 38.1649 28.3736 36.8062C32.3937 31.1819 40.6295 14.9685 41.6643 12.5207C43.166 8.96911 39.0843 8.48828 39.0843 8.48828H15.6328L19.0776 13.7701H19.074Z" fill="white"/>
<path d="M0.307097 12.2471C2.21405 17.4232 10.1205 30.748 14.1479 36.456C14.8969 37.5124 16.8835 39.9092 19.2283 35.1483C21.4971 31.1523 30.0983 15.937 30.0983 15.937H24.7067L17.0391 28.5369C17.0391 28.5369 16.3335 29.7681 15.1574 28.5369C8.04708 15.7039 6.32829 14.4035 9.29909 13.7842L5.77828 8.79019C5.77828 8.79019 -1.57091 7.15829 0.307097 12.2471Z" fill="white"/>
</g>
<defs>
<clipPath id="clip0_945_507">
<rect width="42" height="38" fill="white"/>
</clipPath>
</defs>
</svg>
